<svg width="212" height="281" viewBox="0 0 212 281" fill="none" xmlns="http://www.w3.org/2000/svg">
<path d="M26.8776 173.035L45.7774 131.701L142.616 157.337L123.756 196.059L26.8776 173.035Z" fill="#969593"/>
<path d="M26.8776 173.035L45.7774 131.701L142.616 157.337L123.756 196.059L26.8776 173.035Z" stroke="#4A6195" stroke-width="3"/>
<path d="M26.8776 173.035L45.7774 131.701L142.616 157.337L123.756 196.059L26.8776 173.035Z" stroke="white" stroke-width="3"/>
<path d="M137.622 165.799L145.718 95.5198L208.039 101.249L199.239 170.956L137.622 165.799Z" fill="#969593"/>
<path d="M137.622 165.799L145.718 95.5198L208.039 101.249L199.239 170.956L137.622 165.799Z" stroke="#4A6195" stroke-width="3"/>
<path d="M137.622 165.799L145.718 95.5198L208.039 101.249L199.239 170.956L137.622 165.799Z" stroke="white" stroke-width="3"/>
<path d="M123.285 191.761L98.7805 127.312L161.406 120.728L182.762 174.298L123.285 191.761Z" fill="#D9D9D9"/>
<path d="M123.285 191.761L98.7805 127.312L161.406 120.728L182.762 174.298L123.285 191.761Z" stroke="#4A6195" stroke-width="3"/>
<path d="M123.285 191.761L98.7805 127.312L161.406 120.728L182.762 174.298L123.285 191.761Z" stroke="white" stroke-width="3"/>
<path d="M58.7188 40.6111L109.072 5.13147L143.345 34.6062L119.567 95.265L58.7188 40.6111Z" fill="#969593"/>
<path d="M58.7188 40.6111L109.072 5.13147L143.345 34.6062L119.567 95.265L58.7188 40.6111Z" stroke="#4A6195" stroke-width="3"/>
<path d="M58.7188 40.6111L109.072 5.13147L143.345 34.6062L119.567 95.265L58.7188 40.6111Z" stroke="white" stroke-width="3"/>
<path d="M12.8206 105.017L6.61541 57.6268L80.5261 46.9202L91.5313 89.1318L12.8206 105.017Z" fill="#969593"/>
<path d="M12.8206 105.017L6.61541 57.6268L80.5261 46.9202L91.5313 89.1318L12.8206 105.017Z" stroke="#4A6195" stroke-width="3"/>
<path d="M12.8206 105.017L6.61541 57.6268L80.5261 46.9202L91.5313 89.1318L12.8206 105.017Z" stroke="white" stroke-width="3"/>
<path d="M119.038 66.5196L130.154 14.5044L196.859 24.5589L184.006 76.2897L119.038 66.5196Z" fill="#D9D9D9"/>
<path d="M119.038 66.5196L130.154 14.5044L196.859 24.5589L184.006 76.2897L119.038 66.5196Z" stroke="#4A6195" stroke-width="3"/>
<path d="M119.038 66.5196L130.154 14.5044L196.859 24.5589L184.006 76.2897L119.038 66.5196Z" stroke="white" stroke-width="3"/>
<path d="M146.244 94.1333L160.208 36.4344L203.933 43.4775L193.458 100.619L146.244 94.1333Z" fill="#D9D9D9"/>
<path d="M146.244 94.1333L160.208 36.4344L203.933 43.4775L193.458 100.619L146.244 94.1333Z" stroke="#4A6195" stroke-width="3"/>
<path d="M146.244 94.1333L160.208 36.4344L203.933 43.4775L193.458 100.619L146.244 94.1333Z" stroke="white" stroke-width="3"/>
<path d="M11.5702 74.2336L28.4481 3.74302L113.239 19.9996L99.5424 82.0706L11.5702 74.2336Z" fill="#D9D9D9"/>
<path d="M11.5702 74.2336L28.4481 3.74302L113.239 19.9996L99.5424 82.0706L11.5702 74.2336Z" stroke="#4A6195" stroke-width="3"/>
<path d="M11.5702 74.2336L28.4481 3.74302L113.239 19.9996L99.5424 82.0706L11.5702 74.2336Z" stroke="white" stroke-width="3"/>
<path d="M3.98191 149.247L27.5643 82.7173L74.568 92.6154L53.0997 160.002L3.98191 149.247Z" fill="#D9D9D9"/>
<path d="M3.98191 149.247L27.5643 82.7173L74.568 92.6154L53.0997 160.002L3.98191 149.247Z" stroke="#4A6195" stroke-width="3"/>
<path d="M3.98191 149.247L27.5643 82.7173L74.568 92.6154L53.0997 160.002L3.98191 149.247Z" stroke="white" stroke-width="3"/>
<path d="M200.547 172.571L183.298 171.069L184.766 175.273L127.147 192.09L124.578 197.796L24.754 174.072L32.461 156.955L2 150.348L17.781 105.604L11.542 106.805L4.936 56.3543L14.478 55.1531L26.956 2L93.016 14.6126L109.164 3.2012L127.514 19.1171L128.982 12.8108L198.712 23.3213L194.308 40.4384L205.685 42.2402L195.409 98.6967L209.722 99.8979L200.547 172.571Z" stroke="#45678C" stroke-width="2.5"/>
<mask id="mask0_14_83" style="mask-type:luminance" maskUnits="userSpaceOnUse" x="28" y="17" width="154" height="264">
<path d="M181.6 17.7958H28.6V280.796H181.6V17.7958Z" fill="white"/>
</mask>
<g mask="url(#mask0_14_83)">
<path d="M107.799 42.0742L104.462 38.3658C106.928 38.2464 109.271 38.0799 111.601 38.8325C115.367 40.0025 118.768 41.9358 121.528 44.4764C122.104 45.0083 122.761 45.4677 123.39 45.9598C124.681 47.4974 126.161 48.9374 127.225 50.5871C132.145 58.2994 135.686 66.6327 137.723 75.294C139.659 83.2789 141.575 91.2528 140.19 99.4945L133.379 102.345L132.968 97.4757L132.519 97.4141C132.248 98.1197 131.813 98.8107 131.738 99.5306C131.496 101.918 130.094 103.149 127.118 103.087V98.789L126.456 98.6695C126.087 99.755 125.499 100.84 125.396 101.965C125.252 103.514 124.463 104.216 122.782 104.375C122.089 104.497 121.41 104.671 120.751 104.896V101.184L120.229 101.057C119.706 102.377 119.187 103.703 118.671 105.037H116.394C116.637 103.087 116.879 101.119 117.122 99.1471C119.486 95.0533 120.618 90.4943 120.41 85.9055C120.44 85.3901 120.322 84.8766 120.069 84.4112C117.829 81.3577 115.473 78.1631 111.885 76.4229C108.424 74.7406 104.351 74.035 100.54 72.9098C100.186 72.8252 99.8264 72.76 99.4631 72.7145C99.7015 71.3723 99.8371 70.059 100.187 68.7926C100.783 66.6218 103.45 65.4967 106.669 66.0213C107.959 66.2311 109.221 66.5531 110.779 66.8824C109.85 64.9251 107.943 64.9649 106.389 64.4837C108.93 62.6024 112.058 62.5156 115.268 64.1038C118.717 65.8078 120.94 68.4742 122.905 71.3685L123.263 71.6943C123.263 71.5097 123.234 71.3324 123.222 71.1443C121.947 67.2261 119.662 63.9699 115.494 61.9366C117.002 61.2746 118.441 61.1624 120.768 61.7195C122.527 62.1428 124.237 62.7218 125.972 63.2319L126.284 62.7471C125.973 62.4259 125.635 62.1259 125.273 61.8498C121.832 59.5705 116.748 59.4077 113.048 61.3904C112.577 61.5908 112.052 61.671 111.531 61.6218C109.184 61.5133 107.22 62.2152 105.337 63.4308C103.738 64.48 101.884 65.2397 100.137 66.1153C99.7549 64.8347 99.5165 63.4597 98.9411 62.208C96.7544 57.4251 91.8669 55.106 86.6301 55.5763C86.3876 55.5702 86.1467 55.6149 85.9274 55.7065C83.0007 57.5373 80.3658 55.9018 77.3899 55.1964C78.8697 50.5618 82.5198 47.9605 87.0864 45.9055C91.7437 43.8144 96.4706 44.2991 101.309 45.2254C101.37 44.9974 101.436 44.7696 101.498 44.5416L94.3826 41.7702C96.0843 39.7225 98.2135 38.9049 101 39.7406C103.245 40.4171 105.345 41.4663 107.511 42.3527L108.025 42.6892L107.799 42.0742Z" fill="white"/>
<path d="M82.9433 137.721C77.7929 132.931 71.6025 129.317 65.4245 125.688C60.7672 122.946 58.7407 120.051 58.7366 116.017C64.516 116.285 76.8515 120.782 82.783 123.586C82.572 123.291 82.3206 123.02 82.0349 122.779C76.313 119.06 70.5254 115.409 64.8572 111.636C61.4413 109.364 58.1695 106.933 54.8769 104.509C54.5316 104.165 54.3188 103.735 54.2686 103.278C53.3479 98.8791 53.5616 94.4761 54.2686 90.073C54.3261 89.7112 54.3098 89.3277 54.3303 88.955C54.657 89.037 54.9737 89.1473 55.2756 89.2843C58.1009 90.869 60.9153 92.462 63.7186 94.0637C64.083 96.6324 64.4475 99.2022 64.812 101.773L65.3052 101.712C65.6341 99.5773 65.9615 97.4404 66.2876 95.3009C67.1384 96.133 68.0387 96.9326 68.8237 97.8081C69.4774 98.5318 69.9952 99.3494 70.5747 100.127C70.768 100.435 70.9612 100.746 71.1586 101.053L71.3846 101.379C76.5145 110.731 83.9462 118.224 94.3786 123.21C97.1079 124.512 98.8467 126.582 100.729 128.582C102.969 130.959 105.222 133.325 107.421 135.728C107.875 136.272 108.235 136.871 108.49 137.508C109.723 140.221 110.771 142.996 112.132 145.655C112.773 146.911 113.953 147.953 114.89 149.092C113.883 150.044 112.88 150.995 111.803 152.008C107.191 146.321 101.37 141.878 95.4843 137.479L94.9911 137.359L95.2705 137.667C98.4685 141.466 101.798 145.189 104.823 149.092C107.059 151.987 108.934 155.091 110.894 158.137C111.696 159.367 111.984 160.63 110.319 161.639L114.742 165.485C113.377 166.589 112.025 167.703 110.631 168.788C109.863 169.393 109.053 169.95 108.075 170.663C89.6803 160.778 75.1374 147.58 64.1789 131.299L64.7544 130.576L82.5651 137.967L83.5146 138.644L83.9257 138.231L82.9433 137.721Z" fill="white"/>
<path d="M109.912 102.36C109.792 105.877 111.013 108.952 113.94 111.561C111.498 114.495 111.885 117.61 113.603 121.112C109.961 119.915 107.482 118.142 106.249 115.363C105.098 112.769 104.35 110.034 103.22 107.404C103.183 113.12 105 118.511 107.367 124.3C105.448 123.706 103.771 123.297 102.209 122.672C100.791 122.1 99.5862 121.029 98.1309 120.638C95.562 119.947 95.1797 118.287 94.9947 116.366C94.9012 115 94.6181 113.651 94.1521 112.346C93.1408 113.75 92.0474 115.114 91.1473 116.572C90.3252 117.91 89.4004 118.182 88.0479 117.19C86.6093 116.141 85.2035 115.052 83.7073 114.075C82.2111 113.099 82.3179 112.122 83.2388 110.852C84.2951 109.404 85.1379 107.816 86.0751 106.293L85.5981 106C84.0279 107.646 82.4577 109.292 80.5793 111.268C78.7173 108.862 76.9046 106.564 75.211 104.238C75.0219 103.974 75.3837 103.261 75.6919 102.889C76.9251 101.413 78.2076 99.9943 79.2476 98.3553C76.9827 98.8908 75.9591 100.787 74.2245 101.814C73.5298 100.056 72.8722 98.3192 72.1404 96.6042C71.8076 95.8228 71.8528 95.2764 72.6091 94.6469C77.709 90.3256 83.7111 86.9138 90.2842 84.6C91.5501 84.1622 92.9558 84.1983 93.8643 85.4248C93.5447 85.5616 93.2439 85.7303 92.9683 85.9278C89.1086 89.3828 87.748 93.6303 88.3234 98.3228C88.4468 99.354 89.4868 100.606 90.5184 101.185C93.3177 102.762 96.3841 103.761 99.8492 103.753C103.314 103.746 106.718 103.688 109.912 102.36Z" fill="#969593"/>
<path d="M140.161 99.4921C141.554 91.2504 139.639 83.2766 137.694 75.2918C135.665 66.6331 132.132 58.3009 127.221 50.5885C126.156 48.9388 124.677 47.4988 123.386 45.9612C123.324 45.6537 123.365 45.2738 123.176 45.0494C121.779 43.3996 120.336 41.7933 118.905 40.1507C120.188 39.7628 121.582 39.7756 122.855 40.1868C124.128 40.5981 125.201 41.3826 125.893 42.4083C127.035 44.0302 128.342 45.5572 129.798 46.9706C129.223 45.8876 128.65 44.8023 128.08 43.7145C130.25 45.1832 132.458 46.6087 134.575 48.1427C135.236 48.6239 135.664 49.3656 136.198 49.988L136.609 49.7853C136.116 48.8121 135.623 47.8352 135.142 46.8728C137.892 47.0394 140.239 49.6949 143.133 56.1747V53.121C147.654 54.8215 146.696 58.4032 147.177 61.464C146.187 62.1044 145.361 62.2708 144.123 61.6486C142.134 60.6428 140.337 61.9452 140.19 64.3222C140.736 63.8049 141.184 63.2006 141.813 62.8533C142.073 62.7168 142.362 62.6296 142.662 62.5971C142.962 62.5647 143.267 62.5879 143.556 62.6651C143.86 62.7846 143.967 63.5515 143.967 64.0218C143.914 65.8308 143.774 67.6398 143.663 69.4488L144.23 69.4922C144.559 67.9762 144.81 66.4458 145.233 64.9517C145.747 63.1427 146.688 62.7809 148.345 63.3888C148.131 65.5197 147.905 67.5603 147.72 69.6008C147.572 71.2433 147.44 72.8859 147.366 74.5321C147.395 75.0494 147.48 75.5631 147.621 76.0661C147.412 76.4929 147.001 76.9271 147.029 77.3395C147.214 80.3207 147.486 83.2982 147.732 86.2759C147.009 91.0226 146.984 95.7404 148.965 100.281C150.059 102.792 150.856 105.284 150.679 108.023C150.527 110.404 150.54 110.531 147.802 111.019C146.273 108.125 145.023 107.14 142.352 107.549C138.627 108.125 135.224 107.054 131.714 106.464C131.993 104.481 132.791 102.998 135.475 102.882C136.642 102.835 137.785 102.354 138.948 102.115C141.147 101.659 144.144 103.819 143.955 105.878L145.599 104.756L146.984 107.799C146.939 107.807 146.896 107.822 146.857 107.842C146.836 107.861 146.836 107.9 146.832 107.933L146.988 107.803L148.48 108.352C148.427 107.564 148.341 106.649 148.308 105.73C148.341 104.852 148.223 103.975 147.958 103.128C147.695 103.783 147.428 104.438 147.095 105.259C145.085 103.501 146.31 101.348 145.714 99.2209C145.303 100.44 144.941 101.392 144.518 102.614L140.161 99.4921Z" fill="#969593"/>
<path d="M49.2489 45.543C49.2489 44.7761 49.2489 44.0091 49.2489 43.2421L49.4339 42.4642C50.1144 38.7838 51.8078 35.3059 54.3665 32.334C56.7834 29.5229 60.2116 28.0323 64.1658 27.5077L64.5769 27.4281H68.0132L68.8024 27.5511L71.4454 28.025C71.4166 28.1336 71.3837 28.2421 71.3509 28.3507C66.2415 28.4845 61.1652 32.9201 60.4376 37.8767L60.2773 39.5483C59.1756 45.2103 62.09 49.3166 66.854 52.6705C68.1566 53.6229 69.5769 54.4432 71.0879 55.1161C73.3116 56.0495 74.557 57.6234 75.6094 59.4577C76.3908 60.802 77.3098 62.0809 78.3551 63.2783C78.6921 61.1943 77.5577 59.5662 76.3533 57.8188C78.31 58.1119 80.2542 58.3145 81.3311 60.0618C82.2766 61.5922 83.185 63.1444 84.2742 64.9641C84.6852 62.6379 83.7687 60.8832 82.6301 59.1756C86.2473 58.8137 87.6161 60.7131 89.4328 65.2861C90.4439 63.7704 89.9425 61.9324 87.7435 59.1972C88.1544 59.0923 88.5656 58.8607 88.9438 58.915C94.8258 59.7977 98.6813 66.7261 95.7342 71.263C95.3889 71.7948 94.0901 72.229 93.3583 72.1241C84.6771 70.9048 76.1725 69.208 68.8929 64.4758C65.0044 61.9432 60.9268 59.6133 58.2386 55.9302C55.1342 52.3482 53.1158 48.1301 52.3729 43.6726L49.9846 49.4035L49.3846 46.6067L49.2489 45.543Z" fill="white"/>
<path d="M170.396 61.0454C170.351 61.1647 170.31 61.2877 170.264 61.407L170.1 61.682L169.549 62.7023C169.138 63.2124 168.727 63.7299 168.283 64.2327C166.137 66.7471 163.729 69.0012 159.997 69.5077C158.225 69.75 156.392 69.6632 154.587 69.7284C152.174 66.2588 148.709 63.2812 147.883 58.4114C149.013 58.8383 149.938 58.9469 150.399 59.4101C151.825 60.8247 153.079 62.3767 154.398 63.8746L154.891 63.6647L152.034 58.0569C154.217 57.0113 154.221 57.0077 156.067 58.6864C157.279 59.7717 158.467 60.9042 159.668 62.0149L159.939 62.2429C159.939 62.1091 159.939 61.9715 159.939 61.8377L156.219 56.1901C156.766 55.253 157.773 55.1047 159.178 56.0743C160.708 57.1344 162.343 58.0786 163.934 59.0699L164.308 58.7552C162.927 57.5034 161.546 56.2479 160.157 55.007C159.746 54.6452 159.31 54.3159 158.887 53.9723C161.698 51.7255 163.877 49.0664 163.647 45.6148C163.371 41.4903 160.654 38.2306 157.892 35.0722L154.768 31.4108L155.232 31.1105C161.563 36.1575 167.371 41.5446 169.681 49.2002C169.738 49.3196 169.792 49.4353 169.849 49.562C169.915 49.8731 169.981 50.1842 170.042 50.4917C170.1 50.6148 170.154 50.7378 170.207 50.8536C170.256 51.1539 170.31 51.4578 170.363 51.758L170.606 52.3948L170.754 53.3463L170.963 54.0084C171.021 54.4281 171.078 54.8514 171.14 55.2711C171.189 55.4122 171.239 55.5497 171.292 55.6908V58.0244C171.23 58.2703 171.173 58.5163 171.115 58.7479C171.062 59.0591 171.008 59.3738 170.959 59.6886C170.897 59.8007 170.836 59.9129 170.778 60.0251L170.569 60.6221L170.396 61.0454Z" fill="white"/>
<path d="M95.4834 137.48C101.37 141.876 107.19 146.323 111.802 152.01C112.879 150.997 113.882 150.046 114.889 149.094C114.951 149.094 115.033 149.072 115.066 149.094C117.565 151.189 120.339 150.903 123.356 150.085C126.439 149.235 129.547 149.832 132.913 150.592C132.091 151.272 131.425 151.818 130.768 152.368C125.734 156.592 120.697 160.813 115.658 165.031C115.376 165.215 115.068 165.364 114.741 165.476L110.318 161.63C111.983 160.621 111.695 159.358 110.894 158.128C108.916 155.093 107.058 151.977 104.822 149.083C101.797 145.179 98.4676 141.457 95.2696 137.658C95.3394 137.607 95.4094 137.542 95.4834 137.48Z" fill="#969593"/>
<path d="M147.647 114.43C148.013 116.395 146.685 117.614 145.423 118.624C144.552 118.294 143.504 117.621 143.187 117.828C142.191 118.442 141.403 119.282 140.906 120.259C140.688 120.747 141.539 121.608 142.012 122.495C142.423 121.373 142.698 120.686 143.035 119.774C145.259 122.184 145.049 123.117 141.938 126.236C140.54 125.197 139.171 124.127 137.733 123.132C135.805 121.793 133.828 121.829 131.481 122.553C127.983 123.638 124.312 124.278 120.703 125.085C119.342 125.386 118.307 124.846 117.723 123.779C115.343 119.416 114.488 117.661 119.696 113.888C120.041 114.554 120.336 115.239 120.58 115.939C120.884 117.071 120.954 118.258 121.303 119.376C122.125 121.988 126.022 122.886 128.238 121.022C129.915 120.465 131.115 118.819 130.535 117.426C130.285 116.84 129.171 116.25 128.402 116.199C127.469 116.131 126.478 116.627 125.41 116.923C123.638 115.838 122.413 113.157 123.021 111.297C123.087 111.098 123.724 111.044 124.098 110.936C124.193 111.181 124.205 111.554 124.394 111.659C126.84 112.925 129.327 114.13 131.764 115.386C134.07 116.572 136.5 117.195 139.163 116.576C141.995 115.87 144.815 115.132 147.647 114.43Z" fill="#969593"/>
<path d="M113.12 99.4324C113.017 99.5518 112.918 99.6749 112.82 99.7942L112.499 100.116L111.028 100.84C110.667 100.81 110.305 100.798 109.942 100.804C104.759 101.079 100.846 99.0454 97.5658 95.6878C95.5105 93.5822 95.268 91.1003 95.2063 88.5315C95.3954 87.6053 95.5886 86.6827 95.6996 86.151L101.158 84.6785C101.43 84.9172 101.812 85.1126 101.956 85.4019C103.814 89.143 106.917 91.2884 111.648 91.5525C112.191 91.5815 113.116 92.2762 113.136 92.685C113.255 94.9353 113.149 97.193 113.12 99.4324Z" fill="white"/>
<path d="M49.9868 49.403L52.375 43.6721C53.1179 48.1295 55.1363 52.3475 58.2407 55.9297C58.3639 56.5955 58.2817 57.3768 58.6516 57.9088C61.0316 61.494 64.5256 64.0846 68.6156 66.0274C75.1142 69.1098 81.769 71.8377 89.2089 72.7133C90.6404 72.849 92.0479 73.1356 93.4017 73.5672C91.2066 74.3775 89.0733 75.3978 86.792 75.9188C85.5794 76.1938 84.0831 75.6982 82.7637 75.3942C79.9192 74.7358 77.1036 73.9796 74.2756 73.2633C73.4288 72.4926 72.7424 71.3746 71.7106 71.0165C66.6137 69.2401 63.1074 65.7813 59.4163 62.5034C58.4379 61.6316 57.4884 60.7271 56.428 59.942C55.725 59.421 54.8578 59.1243 54.6521 60.4087C52.2804 58.484 51.6967 55.7776 50.7473 53.2632C50.2827 52.0332 50.2252 50.6945 49.9868 49.403Z" fill="#969593"/>
<path d="M128.078 136.629C128.226 138.688 128.374 140.746 128.535 143.04C127.301 143.092 126.066 143.075 124.835 142.989C124.424 142.946 123.951 142.382 123.775 141.965C123.245 140.724 122.85 139.433 122.402 138.174L121.962 138.279C121.962 139.198 122.032 140.124 121.941 141.036C121.872 141.716 121.691 142.921 121.391 142.96C120.157 143.13 118.513 143.355 117.691 142.797C116.339 141.894 115.326 140.654 114.785 139.237C113.351 134.972 112.274 130.616 111.238 126.213C114.07 127.837 116.918 128.818 120.281 128.695C120.976 128.669 121.732 129.885 122.459 130.525L122.681 130.8C122.788 130.931 122.895 131.061 122.998 131.195L125.152 133.789L128.078 136.629Z" fill="white"/>
<path d="M109.907 102.361C106.714 103.689 103.331 103.747 99.8656 103.754C96.4005 103.761 93.334 102.763 90.5348 101.185C89.5031 100.606 88.4796 99.3544 88.3398 98.3233C87.7644 93.62 89.1249 89.3834 92.9846 85.9283C93.2604 85.7309 93.5611 85.5622 93.8808 85.4254C93.7739 86.7966 93.4697 88.1895 93.6217 89.5353C93.815 91.0766 94.4438 92.5708 94.8878 94.0867C95.5167 94.9767 95.9771 96.0295 96.8116 96.7351C100.688 100.009 105.11 102.162 110.746 101.373L109.907 102.361Z" fill="white"/>
<path d="M131.693 106.46C135.203 107.053 138.607 108.124 142.331 107.545C145.003 107.136 146.252 108.128 147.781 111.015L146.408 112.907C143.28 112.907 139.799 112.979 136.321 112.871C134.899 112.777 133.497 112.515 132.153 112.093C130.38 111.596 128.641 111.009 126.946 110.335C124.134 109.209 121.417 109.741 118.786 110.696C117.553 111.134 116.509 111.199 115.37 110.696C115.662 110.367 115.884 109.926 116.266 109.73C116.649 109.535 117.302 109.568 117.787 109.408C120.381 108.558 122.962 107.679 125.548 106.807L126.6 106.481L130.62 106.543L131.693 106.46Z" fill="white"/>
<path d="M61.6042 76.0446C62.8867 75.632 64.1855 74.8578 65.4516 74.9012C66.8286 74.9482 68.1974 75.7044 69.5292 76.229C71.7347 77.0666 73.8576 78.0637 75.8758 79.2103L70.8444 79.9917L70.75 80.2449C72.8382 80.6791 74.9098 81.2471 77.0268 81.4823C77.9926 81.5909 79.1518 81.1965 80.0478 80.7588C82.4771 79.5757 82.9745 79.5468 84.816 81.3992C85.5848 82.1696 86.1355 83.1104 87.0234 84.2934C85.0585 84.5938 83.5007 84.8831 81.9223 85.0568C80.9687 85.1581 79.9697 84.9628 79.0449 85.1002C74.1124 85.8239 70.2732 84.0149 66.8203 81.2037C64.9829 79.6987 63.1209 78.2226 61.2672 76.732L61.6042 76.0446Z" fill="#969593"/>
<path d="M117.633 92.5798C117.477 91.8056 117.049 90.9842 117.222 90.2643C117.991 86.8561 115.471 84.8373 113.416 82.4966C111.245 80.0399 104.599 79.0848 101.693 80.3512C99.8623 81.1495 98.0509 81.9827 96.2587 82.8511C95.1735 83.3757 92.8018 82.4676 91.5728 80.9987C96.5053 78.6001 101.467 76.6391 107.341 76.6138C111.578 76.6138 114.205 78.4698 116.322 81.129C118.057 83.2998 119.018 85.8322 118.455 88.6651C118.204 89.935 118.414 91.2736 118.414 92.5834L117.633 92.5798Z" fill="#969593"/>
<path d="M63.735 94.063C60.9126 92.4663 58.0929 90.878 55.2758 89.2983C54.9737 89.1614 54.6571 89.051 54.3303 88.969C55.4608 85.7527 56.5952 82.5327 57.5407 79.8555C58.934 80.7166 60.2165 81.5739 61.5729 82.3374C63.7392 83.5565 64.3721 85.0834 63.8707 87.4025C63.4022 89.5406 63.735 91.8308 63.735 94.063Z" fill="#969593"/>
<path d="M128.077 136.627L125.126 133.776C125.865 132.958 126.486 132.007 127.39 131.373C128.113 130.906 129.004 130.687 129.898 130.755C131.093 130.872 132.243 131.223 133.264 131.782C133.918 132.162 134.181 133.074 134.621 133.743C134.578 133.757 134.537 133.774 134.497 133.794C134.497 133.794 134.497 133.848 134.477 133.877L134.608 133.736L139.993 131.229C140.063 131.638 140.429 132.365 140.256 132.972C139.397 135.979 139.656 138.967 140.083 141.988C140.207 142.857 139.82 143.779 139.672 144.676L133.638 134.604L128.726 136.938L128.077 136.627Z" fill="#969593"/>
<path d="M147.716 86.2759C147.469 83.2984 147.198 80.3208 147.013 77.3395C146.984 76.9271 147.395 76.4929 147.605 76.066C148.019 73.9387 148.429 71.8102 148.838 69.6803C148.936 69.1739 149.027 68.6674 149.121 68.1608C149.36 68.7506 149.619 69.3331 149.833 69.9299C151.074 73.3742 152.307 76.8186 153.532 80.2629L150.412 82.7629L150.207 83.0668L149.356 84.0508L149.113 84.3438L147.716 86.2759Z" fill="white"/>
<path d="M133.489 124.967C133.571 124.834 133.633 124.606 133.74 124.58C135.738 124.258 139.174 127.605 138.561 129.255C138.224 130.159 136.157 130.951 134.48 130.76C132.877 130.575 131.294 130.282 129.691 130.119C128.753 130 127.801 130 126.863 130.119C124.442 130.481 124.162 130.391 123.34 128.31L123.361 128.292L126.238 127.341C126.768 127.254 127.385 127.294 127.808 127.059C129.712 126.017 131.627 125.09 134.324 125.666L133.489 124.967Z" fill="#969593"/>
<path d="M128.724 136.939L133.636 134.605L139.67 144.677C139.259 144.96 138.729 145.535 138.437 145.455C137.867 145.26 137.405 144.879 137.146 144.392C136.637 143.379 136.369 142.271 135.913 141.24C135.607 140.719 135.241 140.227 134.82 139.771L134.306 139.931C134.479 141.349 134.651 142.767 134.828 144.2C131.445 143.838 131.129 143.563 130.331 140.987C129.883 139.612 129.262 138.288 128.724 136.939Z" fill="white"/>
<path d="M141.572 140.433C140.339 134.645 143.726 130.397 146.505 125.933C147.475 127.159 148.56 128.404 149.465 129.753C149.686 130.09 149.489 131.019 149.144 131.2C146.924 132.459 146.139 134.616 144.737 136.381C143.755 137.651 142.769 138.914 141.572 140.433Z" fill="#969593"/>
<path d="M153.543 80.252C152.313 76.8078 151.08 73.3635 149.844 69.9192C149.63 69.3223 149.371 68.7398 149.133 68.1501L148.972 66.2941L149.441 66.0263C150.715 67.6219 152.096 69.163 153.227 70.8346C154.55 72.7847 155.582 74.8903 156.885 76.8549C157.641 77.9981 157.403 78.747 156.166 79.3041C155.327 79.6878 154.423 79.9445 153.543 80.252Z" fill="#969593"/>
<path d="M113.116 99.4307C113.145 97.1768 113.252 94.9191 113.116 92.6724C113.096 92.26 112.171 91.569 111.628 91.5401C106.897 91.2831 103.794 89.1377 101.936 85.3895C101.792 85.1 101.409 84.9047 101.138 84.666L103.789 82.857C104.311 83.6927 104.727 84.2572 105.022 84.8649C106.457 87.687 108.895 89.2281 112.397 89.5321C112.886 89.5755 113.63 89.8939 113.762 90.2557C114.916 93.0053 115.225 95.8056 113.955 98.6023C113.84 98.9495 113.412 99.1739 113.116 99.4307Z" fill="#969593"/>
<path d="M70.5724 100.129C69.9929 99.3509 69.4751 98.5332 68.8214 97.8096C68.0364 96.934 67.1361 96.1344 66.2852 95.3023L67.5677 86.5397L68.2789 86.3335C68.8804 86.7472 69.4427 87.2033 69.9599 87.6974C70.3711 88.1461 70.5109 88.7829 70.8849 89.2459C72.2865 91.0223 72.6564 92.6505 70.5931 94.3328C69.2325 95.4399 70.3301 96.8364 70.4409 98.1063C70.4985 98.7792 70.5272 99.4557 70.5724 100.129Z" fill="#969593"/>
<path d="M147.647 114.428C144.815 115.13 141.995 115.875 139.15 116.523C136.499 117.134 134.07 116.523 131.751 115.332C129.306 114.077 126.819 112.872 124.381 111.606C124.192 111.508 124.18 111.135 124.085 110.882C127.09 111.787 130.148 112.575 133.087 113.625C136.894 114.985 140.634 114.504 144.416 113.708C145.115 113.563 145.801 113.346 146.508 113.256C147.523 113.133 148.062 113.451 147.647 114.428Z" fill="white"/>
<path d="M54.6536 60.4078C54.8591 59.1234 55.7265 59.42 56.4293 59.9411C57.4899 60.7262 58.4394 61.6307 59.4176 62.5026C63.117 65.7877 66.6233 69.2391 71.7038 71.0156C72.7356 71.3774 73.422 72.4917 74.2688 73.2623C69.6098 72.1412 65.3356 70.0291 61.8223 67.1118C59.2861 65.0242 57.0336 62.6581 54.6536 60.4078Z" fill="#969593"/>
<path d="M117.108 99.1283C116.865 101.1 116.623 103.068 116.38 105.018H118.657C117.535 106.466 113.819 107.442 112.438 106.372C111.591 105.713 111.353 104.371 111.02 103.293C110.712 102.301 111.735 102.189 112.467 101.813C114.066 100.999 115.566 100.033 117.108 99.1283Z" fill="#969593"/>
<path d="M157.884 35.0725C160.65 38.2309 163.367 41.4907 163.639 45.6152C163.869 49.0667 161.69 51.7258 158.879 53.9726C158.879 53.7483 158.751 53.448 158.879 53.307C161.937 49.6275 162.13 45.6224 160.56 41.4618C159.878 39.6528 158.936 37.9198 158.139 36.1433C158.018 35.7938 157.932 35.4354 157.884 35.0725Z" fill="#969593"/>
<path d="M128.234 121.008C126.019 122.872 122.114 121.974 121.3 119.362C120.95 118.244 120.889 117.058 120.576 115.925C120.333 115.225 120.038 114.54 119.693 113.874L121.337 113.237C122.159 114.952 122.8 116.58 123.733 118.06C124.506 119.279 125.71 120.18 127.511 120.187C127.749 120.191 127.992 120.723 128.234 121.008Z" fill="white"/>
<path d="M154.574 69.7309C156.378 69.6659 158.212 69.7527 159.983 69.5102C163.716 69.0037 166.124 66.7498 168.27 64.2352C168.681 63.7324 169.117 63.2151 169.536 62.705C169.433 65.5015 167.246 67.231 165.129 68.812C162.972 70.4353 160.282 71.4089 157.451 71.5905C155.807 71.7063 154.845 71.2106 154.574 69.7309Z" fill="#969593"/>
<path d="M110.748 101.374C105.113 102.148 100.69 100.01 96.8139 96.7356C95.9917 96.0301 95.519 94.9772 94.8902 94.0872C94.8902 93.5229 94.8902 92.962 94.9436 92.4013C95.0217 91.1134 95.1161 89.8253 95.2066 88.5409C95.2684 91.1096 95.5149 93.606 97.566 95.6973C100.854 99.0547 104.759 101.088 109.943 100.813C110.305 100.807 110.667 100.819 111.028 100.849C110.933 101.023 110.843 101.2 110.748 101.374Z" fill="#969593"/>
<path d="M125.549 106.784C122.963 107.656 120.382 108.535 117.788 109.385C117.303 109.545 116.699 109.487 116.267 109.707C115.836 109.928 115.663 110.344 115.371 110.673L111.828 107.656C114.636 107.544 117.02 107.602 119.342 107.294C120.748 107.113 122.067 106.383 123.424 105.887C124.505 105.496 125.286 105.648 125.549 106.784Z" fill="#969593"/>
<path d="M149.123 84.3453L149.366 84.0522L150.216 83.0682L150.422 82.7643C151.68 82.7643 151.918 83.2635 151.298 84.1573C150.677 85.0509 150.476 85.9409 151.08 87.0081C151.376 87.5254 151.104 88.3359 150.965 88.9944C150.284 91.8669 150.038 94.806 150.233 97.7353C150.225 98.0346 150.186 98.3326 150.114 98.6253L149.497 98.7122C149.31 98.0186 149.173 97.3153 149.086 96.6066C149.037 95.4922 149.086 94.367 149.148 93.2491C149.222 91.9285 149.411 90.6116 149.468 89.2694C149.514 88.1261 150.381 86.9068 148.992 85.8396C148.749 85.6586 149.07 84.8663 149.123 84.3453Z" fill="#111109"/>
<path d="M107.681 84.398C108.614 84.8286 109.276 85.2664 110.02 85.4437C110.629 85.5884 111.328 85.4436 111.985 85.3967L112.367 84.9262C112.614 85.4689 113.239 86.2179 113.029 86.5109C112.585 87.1477 111.751 87.9111 111.003 87.9581C109.248 88.1282 107.751 86.576 107.681 84.398Z" fill="#4C6697"/>
<path d="M130.622 106.519L126.602 106.458C126.7 104.594 127.321 104.142 130.622 103.704V106.519Z" fill="#969593"/>
<path d="M133.491 124.972L134.342 125.659C131.646 125.084 129.73 126.021 127.827 127.052C127.416 127.288 126.787 127.248 126.257 127.335L130.972 124.693L131.72 124.639L133.491 124.972Z" fill="white"/>
<path d="M114.942 98.8001L117.038 93.9521C118.177 95.7611 117.478 97.7219 115.057 98.8869L114.942 98.8001Z" fill="#969593"/>
<path d="M112.839 83.7743L106.648 82.9386C108.182 81.6687 111.158 82.0847 112.839 83.7743Z" fill="#969593"/>
<path d="M125.122 133.777L122.968 131.182H125.488C125.352 132.159 125.237 132.97 125.122 133.777Z" fill="#969593"/>
<path d="M171.104 58.7779C171.162 58.5283 171.219 58.2823 171.281 58.0544C171.219 58.2823 171.162 58.5465 171.104 58.7779Z" fill="#111109"/>
<path d="M115.06 98.8816L114.912 99.2724L114.752 99.2361C114.818 99.0878 114.879 98.9395 114.945 98.7948L115.06 98.8816Z" fill="#969593"/>
<path d="M71.3525 28.354C71.3853 28.2455 71.4181 28.1369 71.4467 28.0284C71.4181 28.155 71.3853 28.2455 71.3525 28.354Z" fill="#111109"/>
<path d="M113.907 84.7256L114.076 84.8713L113.894 84.7398L113.907 84.7256Z" fill="#969593"/>
<path d="M128.076 43.7277L127.923 43.6584C127.97 43.6829 128.016 43.7095 128.06 43.738L128.076 43.7277Z" fill="#969593"/>
<path d="M170.767 60.0589L170.948 59.7224C170.886 59.8345 170.824 59.9467 170.767 60.0589Z" fill="#111109"/>
<path d="M123.334 128.297L123.193 128.154L123.354 128.279L123.334 128.297Z" fill="#969593"/>
<path d="M171.277 55.7059C171.223 55.5648 171.174 55.4272 171.125 55.2862C171.174 55.4272 171.223 55.5683 171.277 55.7059Z" fill="#111109"/>
<path d="M113.879 84.7388L113.726 84.5788L113.891 84.7247L113.879 84.7388Z" fill="#969593"/>
<path d="M170.193 50.8507C170.14 50.7278 170.086 50.6047 170.029 50.4891C170.099 50.5902 170.152 50.7278 170.193 50.8507Z" fill="#111109"/>
<path d="M169.846 49.5507C169.788 49.4349 169.735 49.3191 169.677 49.1888L169.846 49.5507Z" fill="#111109"/>
<path d="M107.795 42.0711L108.012 42.6861L107.499 42.3496L107.795 42.0711Z" fill="#111109"/>
<path d="M123.214 71.1304C123.214 71.315 123.243 71.4923 123.255 71.6804L122.898 71.3549L123.214 71.1304Z" fill="#111109"/>
<path d="M82.9401 137.721L83.9513 138.223L83.5403 138.636L82.5907 137.959L82.9401 137.721Z" fill="#111109"/>
<path d="M95.268 137.668L94.9886 137.36L95.4818 137.48C95.4078 137.541 95.3378 137.606 95.268 137.668Z" fill="#969593"/>
<path d="M146.975 107.798L146.822 107.926C146.822 107.894 146.822 107.854 146.846 107.837C146.885 107.816 146.927 107.802 146.971 107.794L146.975 107.798Z" fill="#111109"/>
<path d="M159.919 61.837C159.919 61.971 159.919 62.1084 159.919 62.2423L159.648 62.0144C159.727 61.9429 159.819 61.8831 159.919 61.837Z" fill="#111109"/>
<path d="M134.602 133.738L134.473 133.877C134.473 133.848 134.473 133.809 134.493 133.795C134.532 133.776 134.572 133.759 134.614 133.745L134.602 133.738Z" fill="#111109"/>
<path d="M66.3257 36.4549C66.2969 36.6395 66.2681 36.8167 66.2435 37.012L65.9722 38.0975C65.9722 38.9561 65.9722 39.8123 65.9722 40.6662C66.0668 41.0497 66.1613 41.4296 66.2518 41.8095C67.0738 44.9389 69.5114 46.5924 72.775 47.6163C73.782 47.9347 74.3657 47.7646 75.1797 47.211C77.794 45.431 80.4082 43.6149 83.2321 42.1206C84.6625 41.3644 86.5821 41.3717 88.1976 40.8399C89.8613 40.2605 91.4767 39.5786 93.0314 38.7994C94.9839 37.8586 96.7803 36.6286 98.8107 35.8652C102.588 34.4687 106.39 35.261 110.168 36.1872C111.373 36.4725 112.627 36.5607 113.867 36.4476C117.275 36.151 120.276 36.9904 123.173 38.4954C124.485 39.1755 126.018 39.5266 127.448 40.033C128.953 40.5612 130.465 41.0751 131.97 41.6394C133.474 42.2038 134.757 42.9709 136.245 43.3399C139.694 44.1974 142.205 46.028 144.145 48.6076C145.538 50.46 146.689 50.7784 149.078 50.1343C153.755 48.8572 155.243 46.8781 155.486 42.5765C155.782 36.9432 153.217 32.3449 149.402 28.1047C149.18 27.8551 148.946 27.6127 148.728 27.3594C148.695 27.3232 148.728 27.2545 148.695 26.9325C149.345 27.0736 149.929 27.1785 150.508 27.3377C157.414 29.2733 162.318 33.4882 166.761 38.2892C169.942 41.7158 172.2 45.7321 173.367 50.0367C173.477 50.4455 173.506 50.876 173.572 51.2957L173.732 51.7263C173.798 52.4282 173.865 53.1324 173.934 53.839V56.0895L173.864 56.8673C173.765 57.2292 173.671 57.5908 173.576 57.9744C173.403 58.6738 173.232 59.3746 173.062 60.0765C172.988 60.3297 172.918 60.5866 172.844 60.8398C172.512 63.5279 171.093 65.7928 169.223 67.8586C166.288 71.1147 163.629 74.5735 159.613 76.9505C159.251 77.164 159.12 78.3252 159.428 78.6619C160.661 80.0077 160.295 81.093 159.288 82.3702C157.471 84.6711 155.749 87.0374 154.105 89.4396C153.635 90.1738 153.37 90.9962 153.332 91.8384C152.95 98.944 154.976 105.33 160.645 110.652C160.865 110.891 161.027 111.167 161.122 111.463C161.216 111.759 161.241 112.069 161.195 112.374C158.729 123.589 152.933 133.47 145.826 142.913C138.637 152.461 129.754 160.619 120.251 168.322C115.672 172.034 111.056 175.71 106.296 179.537C103.714 177.479 101.199 175.508 98.7245 173.492C90.1911 166.534 81.3372 159.812 74.1849 151.708C64.7309 140.999 56.1687 129.776 52.3994 116.314C51.8076 114.197 51.2032 112.084 50.6442 109.961C50.2579 108.488 49.3536 106.889 51.7088 106.151C51.5856 105.789 51.5897 105.648 51.5158 105.608C47.8162 103.6 49.074 100.304 48.8439 97.4208C48.8151 97.0952 49.666 96.7588 49.9578 96.3355C50.2496 95.9122 50.5785 95.25 50.4346 95.1306C47.8286 93.1263 49.0535 90.6371 49.2549 88.2928C49.3013 87.3865 49.4852 86.4898 49.8016 85.6264C49.9272 85.368 50.1122 85.1352 50.345 84.9428C50.5776 84.7505 50.8531 84.6025 51.1539 84.5083C52.3871 84.2117 53.0079 83.6907 52.0172 82.7753C50.7306 81.5887 50.9648 80.4021 51.5609 79.1104L55.3672 70.847C50.1181 65.5359 46.612 59.447 45.1732 52.4716L44.8896 51.4368C44.7828 50.8978 44.6759 50.3514 44.5649 49.8267C44.606 49.7942 44.6841 49.7472 44.6759 49.7292C44.6335 49.654 44.5854 49.5815 44.532 49.5121C44.5032 49.038 44.4704 48.5642 44.4416 48.0939V44.8376L44.532 43.7523L44.5978 43.1192C44.6183 42.8948 44.643 42.6705 44.6635 42.4463C44.717 42.3196 44.7663 42.1893 44.8156 42.0627L44.8773 41.5091C44.9718 41.1292 45.0705 40.7493 45.165 40.3695C45.3212 39.646 45.3129 38.8573 45.6582 38.1987C49.0452 31.8854 53.8011 26.8384 61.8411 24.9173C62.1936 24.8547 62.5508 24.816 62.9099 24.8015L63.3703 24.6785L64.1267 24.5917L64.4801 24.5663H68.1179L68.4754 24.6025L69.61 24.7147L70.021 24.8088C73.2847 24.8088 75.3852 26.4622 77.4816 28.8789C71.7475 29.1865 68.0274 31.4115 66.5189 36.0641L66.3257 36.4549ZM113.904 84.7254L113.736 84.5771L113.892 84.7399L114.077 84.8738L113.904 84.7254ZM115.059 98.8824C117.48 97.7174 118.179 95.771 117.041 93.9476L114.944 98.7956L114.751 99.2371L114.911 99.2732L115.059 98.8824ZM131.715 124.635L130.967 124.689L126.252 127.33L123.375 128.285L123.21 128.155L123.354 128.3C124.176 130.395 124.456 130.496 126.877 130.109C127.815 129.989 128.767 129.989 129.705 130.109C131.308 130.272 132.891 130.565 134.494 130.749C136.171 130.941 138.238 130.149 138.576 129.244C139.188 127.594 135.752 124.248 133.754 124.57C133.647 124.588 133.585 124.823 133.503 124.957L131.715 124.635ZM153.542 80.2537C154.421 79.9389 155.326 79.682 156.164 79.3058C157.397 78.7485 157.64 77.9997 156.883 76.8565C155.58 74.8919 154.549 72.7863 153.225 70.8361C152.095 69.1647 150.714 67.6235 149.439 66.028L148.971 66.2957L149.131 68.1516C149.037 68.6582 148.946 69.1647 148.847 69.6711C148.437 71.801 148.025 73.9295 147.614 76.0569C147.474 75.5539 147.388 75.0402 147.359 74.5229C147.433 72.8767 147.565 71.2342 147.713 69.5916C147.898 67.5511 148.124 65.5105 148.338 63.3796C146.694 62.7646 145.74 63.1228 145.226 64.9425C144.815 66.4368 144.552 67.9672 144.223 69.483L143.656 69.4397C143.767 67.6308 143.907 65.8218 143.96 64.0128C143.96 63.5424 143.861 62.7754 143.549 62.6561C143.26 62.5787 142.955 62.5557 142.655 62.5881C142.355 62.6204 142.066 62.7076 141.806 62.8442C141.177 63.2059 140.729 63.7957 140.183 64.313C140.331 61.936 142.127 60.6336 144.116 61.6394C145.35 62.2617 146.172 62.0952 147.17 61.4548C146.689 58.3942 147.627 54.8123 143.126 53.112V56.2053C140.248 49.7254 137.885 47.0699 135.135 46.9035C135.616 47.8659 136.109 48.8427 136.602 49.816L136.191 50.0186C135.657 49.3963 135.229 48.6546 134.568 48.1734C132.451 46.6466 130.243 45.2139 128.073 43.7451L127.933 43.6619L128.09 43.7342C128.66 44.8147 129.232 45.9002 129.808 46.9903C128.352 45.5734 127.047 44.0427 125.907 42.4173C125.214 41.3915 124.141 40.607 122.869 40.1958C121.596 39.7846 120.201 39.7719 118.919 40.1597C120.35 41.7877 121.796 43.4158 123.19 45.0584C123.379 45.2827 123.338 45.6626 123.4 45.9701C122.779 45.478 122.113 45.0186 121.538 44.4867C118.777 41.9461 115.377 40.0128 111.611 38.8428C109.28 38.0902 106.949 38.2566 104.471 38.3761L107.809 42.0844L107.513 42.363C105.346 41.4766 103.246 40.4274 101.002 39.7509C98.2148 38.9152 96.069 39.7509 94.3839 41.7805L101.499 44.5519C101.437 44.7799 101.372 45.0077 101.31 45.2357C96.4719 44.3094 91.745 43.8246 87.0877 45.9158C82.5211 47.9708 78.8668 50.572 77.3911 55.2067C80.367 55.9303 83.002 57.5476 85.9286 55.7168C86.1479 55.6251 86.3887 55.5805 86.6314 55.5865C91.8682 55.1163 96.7556 57.4354 98.9424 62.2183C99.5178 63.47 99.7644 64.8449 100.139 66.1256C101.885 65.2393 103.739 64.4903 105.338 63.4411C107.221 62.211 109.186 61.5091 111.533 61.6321C112.053 61.6813 112.578 61.6011 113.049 61.4007C116.749 59.418 121.834 59.5917 125.274 61.8601C125.636 62.1361 125.974 62.4362 126.285 62.7574L125.973 63.2422C124.238 62.732 122.528 62.1567 120.769 61.7298C118.442 61.1727 117.004 61.2849 115.495 61.9469C119.663 63.9801 121.949 67.2364 123.223 71.1546L122.906 71.3788C120.941 68.4845 118.718 65.8181 115.269 64.1141C112.059 62.5258 108.931 62.6127 106.39 64.494C107.944 64.9752 109.851 64.9354 110.78 66.8926C109.231 66.5633 107.969 66.2414 106.67 66.0316C103.451 65.507 100.784 66.6285 100.188 68.8029C99.8384 70.0692 99.7027 71.3825 99.4643 72.7248C99.8276 72.7702 100.187 72.8354 100.541 72.9201C104.352 74.0453 108.425 74.7509 111.886 76.4332C115.475 78.1734 117.83 81.368 120.07 84.4215C120.324 84.8868 120.441 85.4004 120.411 85.9158C120.619 90.5045 119.487 95.0635 117.123 99.1574C115.581 100.062 114.081 101.028 112.482 101.842C111.751 102.204 110.727 102.33 111.035 103.322C111.368 104.407 111.607 105.742 112.453 106.401C113.835 107.486 117.55 106.48 118.672 105.047C119.19 103.728 119.71 102.402 120.23 101.068L120.752 101.194V104.892C121.411 104.667 122.09 104.492 122.783 104.371C124.464 104.212 125.249 103.51 125.397 101.961C125.5 100.843 126.088 99.7653 126.458 98.6653L127.119 98.7848V103.083C130.087 103.134 131.497 101.914 131.74 99.5264C131.814 98.8029 132.249 98.1155 132.521 97.4099L132.969 97.4715L133.38 102.341L140.191 99.4903L144.531 102.609C144.943 101.404 145.3 100.438 145.728 99.2153C146.324 101.343 145.099 103.495 147.109 105.254C147.442 104.432 147.709 103.778 147.972 103.123C148.237 103.969 148.355 104.846 148.321 105.724C148.354 106.643 148.441 107.558 148.494 108.347L147.002 107.797L145.617 104.754L143.972 105.876C144.162 103.817 141.165 101.657 138.966 102.113C137.803 102.352 136.66 102.837 135.493 102.88C132.808 102.996 132.011 104.479 131.731 106.462L130.659 106.52V103.705C127.37 104.143 126.737 104.595 126.639 106.459L125.586 106.784C125.323 105.648 124.542 105.496 123.449 105.898C122.092 106.393 120.773 107.124 119.367 107.305C117.045 107.602 114.661 107.544 111.853 107.667L115.409 110.684C116.547 111.198 117.596 111.133 118.825 110.684C121.455 109.744 124.168 109.212 126.984 110.322C128.666 110.999 130.391 111.59 132.151 112.092C133.494 112.515 134.896 112.778 136.319 112.873C139.796 112.982 143.278 112.909 146.406 112.909L147.779 111.017C150.521 110.529 150.508 110.402 150.656 108.021C150.833 105.283 150.035 102.79 148.942 100.279C146.965 95.7385 146.99 91.0207 147.709 86.2739L149.115 84.342C149.061 84.863 148.741 85.6553 149 85.8542C150.389 86.9216 149.522 88.1408 149.476 89.2841C149.419 90.6082 149.23 91.9251 149.156 93.2638C149.09 94.3818 149.045 95.5069 149.094 96.6212C149.181 97.3301 149.318 98.0333 149.505 98.7269L150.122 98.6401C150.194 98.3474 150.234 98.0493 150.241 97.7501C150.046 94.8208 150.292 91.8817 150.973 89.0091C151.112 88.3507 151.384 87.5402 151.088 87.0229C150.479 85.9374 150.677 85.0944 151.306 84.1719C151.935 83.2493 151.688 82.7717 150.43 82.7791L153.542 80.2537ZM125.122 133.778C125.237 132.971 125.352 132.16 125.488 131.183H122.968L122.651 130.789L122.429 130.514C121.702 129.874 120.946 128.658 120.251 128.683C116.897 128.806 114.048 127.826 111.208 126.202C112.244 130.612 113.321 134.968 114.755 139.226C115.297 140.642 116.309 141.883 117.661 142.786C118.483 143.343 120.128 143.119 121.361 142.949C121.661 142.909 121.842 141.704 121.912 141.024C122.002 140.113 121.932 139.186 121.932 138.267L122.372 138.162C122.82 139.429 123.194 140.713 123.745 141.954C123.922 142.37 124.399 142.934 124.805 142.978C126.036 143.064 127.272 143.081 128.505 143.029C128.344 140.735 128.196 138.687 128.049 136.618L128.694 136.929C129.232 138.278 129.853 139.602 130.285 140.977C131.107 143.553 131.399 143.824 134.781 144.19C134.605 142.743 134.432 141.339 134.26 139.921L134.773 139.762C135.194 140.217 135.561 140.709 135.867 141.231C136.339 142.262 136.607 143.369 137.1 144.382C137.358 144.869 137.821 145.25 138.391 145.445C138.682 145.525 139.213 144.95 139.624 144.667C139.776 143.77 140.162 142.858 140.035 141.979C139.624 138.958 139.348 135.97 140.207 132.963C140.38 132.356 140.014 131.628 139.944 131.22L134.559 133.727C134.12 133.057 133.857 132.146 133.203 131.766C132.182 131.207 131.032 130.856 129.837 130.739C128.943 130.67 128.052 130.89 127.329 131.357C126.425 131.99 125.804 132.942 125.064 133.759L125.122 133.778ZM94.8895 94.0851C94.4454 92.5692 93.8166 91.0749 93.6233 89.5338C93.4548 88.1878 93.7754 86.7949 93.8822 85.4237C92.9738 84.1973 91.5681 84.161 90.3022 84.5988C83.729 86.9127 77.727 90.3245 72.6271 94.6459C71.8707 95.2754 71.8051 95.8217 72.1584 96.6031C72.8902 98.3181 73.5478 100.055 74.2425 101.813C75.9976 100.786 77.0007 98.8897 79.2655 98.3542C78.2256 99.9859 76.9265 101.411 75.7099 102.888C75.4017 103.249 75.0399 103.973 75.229 104.237C76.9226 106.581 78.7353 108.861 80.5973 111.267C82.4757 109.291 84.0459 107.649 85.6161 105.999L86.093 106.292C85.1558 107.815 84.3131 109.393 83.2568 110.851C82.3359 112.121 82.2373 113.097 83.7253 114.074C85.2134 115.051 86.6274 116.14 88.0661 117.189C89.4184 118.181 90.3349 117.913 91.1652 116.571C92.0654 115.123 93.1588 113.749 94.1701 112.345C94.6354 113.647 94.9184 114.994 95.0127 116.357C95.1977 118.278 95.58 119.939 98.1489 120.63C99.6041 121.021 100.808 122.077 102.227 122.663C103.789 123.289 105.466 123.698 107.385 124.291C105.018 118.503 103.201 113.112 103.238 107.396C104.368 110.033 105.116 112.768 106.267 115.355C107.5 118.134 109.967 119.906 113.621 121.104C111.907 117.602 111.516 114.487 113.958 111.553C111.031 108.944 109.81 105.869 109.93 102.352L110.752 101.364C110.846 101.191 110.937 101.003 111.031 100.84L112.503 100.116L112.823 99.7942C112.922 99.6748 113.021 99.5518 113.123 99.4324C113.419 99.161 113.847 98.9367 113.995 98.6147C115.265 95.818 114.957 93.0177 113.802 90.2681C113.654 89.9063 112.926 89.5988 112.437 89.5445C108.935 89.2407 106.497 87.6994 105.063 84.8775C104.75 84.2696 104.335 83.7052 103.83 82.8695L101.178 84.6784L95.7196 86.151C95.6088 86.6827 95.4155 87.5981 95.2264 88.5315C95.1359 89.8159 95.0415 91.1039 94.9634 92.3918C94.9058 92.9598 94.9058 93.5207 94.8895 94.0851ZM74.263 73.2639C77.091 73.9874 79.9068 74.7364 82.7512 75.3948C84.0705 75.6986 85.5668 76.1943 86.7795 75.9195C89.0607 75.3984 91.194 74.3782 93.3891 73.5677C92.0355 73.1363 90.6278 72.8495 89.1964 72.7139C81.7647 71.8384 75.1016 69.096 68.603 66.028C64.513 64.0852 61.0191 61.4947 58.6391 57.9092C58.2774 57.3666 58.3596 56.5959 58.2281 55.9303C60.9163 59.6133 64.9939 61.9505 68.8824 64.4758C76.1621 69.2082 84.6666 70.9049 93.3479 72.1242C94.0919 72.2291 95.3785 71.795 95.7238 71.263C98.6711 66.7263 94.8153 59.7979 88.9333 58.915C88.5717 58.8609 88.1523 59.0923 87.733 59.1973C89.9322 61.9324 90.4337 63.7704 89.4225 65.2863C87.6138 60.7169 86.2451 58.8319 82.6402 59.1755C83.7911 60.8941 84.6954 62.6488 84.2843 64.9643C83.195 63.1553 82.2866 61.5924 81.3413 60.062C80.2643 58.3145 78.32 58.1119 76.3636 57.8188C77.5678 59.5663 78.7024 61.1943 78.3652 63.2783C77.32 62.0809 76.401 60.8021 75.6194 59.4577C74.5714 57.6162 73.3258 56.0424 71.098 55.1163C69.587 54.4433 68.1668 53.6229 66.8642 52.6705C62.0837 49.3239 59.1695 45.2103 60.2875 39.5482L60.4478 37.8767C61.1752 32.9202 66.2518 28.4701 71.361 28.3507L71.4557 28.0251L68.8126 27.5512L68.0233 27.4281H64.5869L64.176 27.5077C60.2217 28.0323 56.777 29.5229 54.3765 32.3341C51.818 35.3061 50.1246 38.784 49.444 42.4643L49.259 43.2421C49.259 44.0092 49.259 44.7761 49.259 45.5432L49.3947 46.5924C49.5962 47.5294 49.8058 48.4664 49.9949 49.4034C50.2333 50.6951 50.2908 52.0374 50.7552 53.2639C51.7049 55.7783 52.2885 58.4846 54.6603 60.4093C57.0401 62.6597 59.2927 65.0258 61.8289 67.1314C65.3408 70.0406 69.6105 72.1463 74.263 73.2639ZM128.238 121.021C127.995 120.735 127.753 120.203 127.51 120.199C125.71 120.199 124.505 119.291 123.733 118.072C122.8 116.592 122.171 114.964 121.336 113.249L119.692 113.886C114.484 117.66 115.339 119.414 117.719 123.777C118.303 124.845 119.338 125.384 120.699 125.084C124.308 124.291 127.979 123.636 131.477 122.551C133.824 121.827 135.801 121.791 137.729 123.13C139.167 124.125 140.536 125.196 141.934 126.234C145.045 123.115 145.255 122.182 143.031 119.772C142.694 120.673 142.431 121.372 142.008 122.493C141.535 121.607 140.684 120.746 140.902 120.257C141.399 119.28 142.187 118.44 143.183 117.826C143.5 117.62 144.548 118.293 145.419 118.622C146.681 117.613 148.009 116.393 147.643 114.429C148.054 113.452 147.52 113.134 146.517 113.264C145.81 113.351 145.123 113.571 144.425 113.716C140.643 114.512 136.902 114.993 133.096 113.633C130.157 112.584 127.099 111.795 124.094 110.89C123.72 111.013 123.083 111.068 123.017 111.252C122.409 113.112 123.634 115.782 125.406 116.878C126.474 116.596 127.461 116.1 128.398 116.155C129.167 116.205 130.281 116.795 130.531 117.381C131.144 118.803 129.911 120.449 128.238 121.006V121.021ZM169.848 49.5482L169.679 49.1865C167.369 41.5381 161.561 36.1619 155.231 31.0967L154.767 31.397L157.882 35.0548C157.928 35.4225 158.012 35.7857 158.133 36.1401C158.93 37.9165 159.872 39.6496 160.554 41.4585C162.124 45.6191 161.931 49.6243 158.873 53.3037C158.754 53.4447 158.873 53.7451 158.873 53.9693C159.284 54.3131 159.736 54.6422 160.143 55.004C161.533 56.245 162.914 57.5004 164.295 58.7523L163.921 59.0671C162.33 58.0758 160.694 57.1314 159.165 56.0713C157.759 55.0982 156.752 55.2501 156.205 56.1871L159.917 61.8384C159.818 61.8847 159.728 61.9444 159.65 62.0157C158.45 60.905 157.262 59.787 156.049 58.6872C154.203 57.0085 154.199 57.0121 152.017 58.0575L154.873 63.6655L154.38 63.8752C153.061 62.3775 151.807 60.8253 150.381 59.4107C149.916 58.9476 148.996 58.8391 147.865 58.4122C148.687 63.282 152.156 66.2596 154.569 69.729C154.828 71.1763 155.778 71.7045 157.447 71.5887C160.276 71.4062 162.965 70.4328 165.121 68.8101C167.238 67.2291 169.424 65.4998 169.527 62.7031L170.078 61.6828L170.243 61.4078L170.374 61.046L170.534 60.6516L170.744 60.0547L170.925 59.7182C170.974 59.4035 171.028 59.0887 171.081 58.7776C171.139 58.528 171.196 58.282 171.258 58.054V55.7204C171.204 55.583 171.155 55.4418 171.106 55.3008C171.044 54.8811 170.987 54.4578 170.929 54.0381L170.719 53.3761L170.604 52.3955L170.378 51.7408C170.325 51.4404 170.271 51.1365 170.222 50.8363C170.169 50.7132 170.115 50.5902 170.058 50.4745L169.848 49.5482ZM54.3438 88.9548C54.3231 89.3167 54.3438 89.7037 54.2821 90.0728C53.575 94.4758 53.3612 98.8788 54.2821 103.278C54.3323 103.735 54.5451 104.165 54.8904 104.508C58.1788 106.921 61.4671 109.364 64.8707 111.636C70.5472 115.409 76.3265 119.06 82.0482 122.779C82.3341 123.02 82.5853 123.291 82.7963 123.586C76.865 120.782 64.5294 116.285 58.7501 116.017C58.7501 120.04 60.7807 122.953 65.4378 125.688C71.6035 129.306 77.8062 132.924 82.9566 137.721L82.595 137.96L64.7843 130.568L64.2089 131.292C75.1673 147.573 89.6937 160.771 108.105 170.655C109.083 169.931 109.893 169.385 110.661 168.781C112.038 167.696 113.391 166.581 114.772 165.478C115.098 165.366 115.407 165.216 115.688 165.033C120.73 160.822 125.767 156.601 130.798 152.37C131.456 151.82 132.122 151.285 132.944 150.594C129.578 149.834 126.47 149.237 123.387 150.087C120.37 150.916 117.596 151.191 115.096 149.096C115.064 149.071 114.981 149.096 114.92 149.096C113.982 147.956 112.803 146.925 112.162 145.659C110.801 143 109.74 140.232 108.52 137.511C108.265 136.875 107.904 136.275 107.451 135.731C105.252 133.329 102.999 130.963 100.759 128.586C98.8765 126.585 97.1378 124.516 94.4085 123.213C83.9761 118.228 76.5444 110.735 71.4144 101.383L71.1885 101.057C70.9911 100.749 70.7979 100.438 70.6048 100.131C70.5595 99.4577 70.5307 98.7811 70.4731 98.1082C70.3623 96.8383 69.2647 95.4419 70.6253 94.3348C72.6806 92.6523 72.3187 91.0243 70.9171 89.2479C70.5431 88.774 70.3991 88.1626 69.9923 87.6994C69.4749 87.2053 68.9126 86.7492 68.3111 86.3354L67.5999 86.5417L66.3174 95.3043C65.9887 97.4437 65.6613 99.5807 65.3351 101.715L64.8419 101.777C64.4747 99.2033 64.1101 96.6333 63.7485 94.0669C63.7485 91.8347 63.432 89.5445 63.9005 87.3883C64.402 85.0728 63.769 83.546 61.6027 82.3231C60.2463 81.5597 58.9638 80.7022 57.5705 79.8412C56.5921 82.5185 55.4577 85.7384 54.3272 88.9548H54.3438ZM61.6233 76.0424L61.2699 76.7189C63.1195 78.2096 64.9693 79.6857 66.823 81.1908C70.2759 84.0163 74.1273 85.8072 79.0477 85.0873C79.989 84.9497 80.9878 85.1452 81.925 85.0438C83.5034 84.8702 85.0612 84.5807 87.0261 84.2805C86.1382 83.1046 85.5875 82.164 84.8187 81.3861C82.9772 79.5337 82.4799 79.5771 80.0505 80.7457C79.1545 81.1872 77.9953 81.5815 77.0295 81.4693C74.9125 81.2342 72.8409 80.6661 70.7527 80.232L70.8472 79.9788L75.8785 79.1972C73.8603 78.0507 71.7374 77.0536 69.5319 76.2161C68.2001 75.6915 66.8313 74.9353 65.4543 74.8883C64.1882 74.8558 62.9099 75.63 61.6069 76.0424H61.6233ZM117.649 92.5799H118.401C118.401 91.2704 118.192 89.9317 118.442 88.6618C119.006 85.829 118.031 83.3072 116.309 81.1255C114.192 78.4664 111.566 76.596 107.328 76.6104C101.454 76.6358 96.476 78.5967 91.5598 80.9953C92.793 82.4642 95.1606 83.3723 96.2459 82.8477C98.0379 81.9818 99.8494 81.1486 101.68 80.3477C104.586 79.0814 111.233 80.0366 113.403 82.4932C115.458 84.8196 117.978 86.8528 117.209 90.2608C117.049 90.9845 117.476 91.8057 117.633 92.5799H117.649ZM141.588 140.435C142.785 138.915 143.771 137.652 144.77 136.397C146.172 134.631 146.957 132.475 149.176 131.216C149.522 131.021 149.719 130.091 149.497 129.769C148.597 128.419 147.508 127.175 146.537 125.948C143.726 130.398 140.322 134.657 141.572 140.435H141.588ZM107.681 84.3963C107.751 86.5669 109.247 88.1263 111.002 87.9744C111.751 87.9092 112.585 87.1459 113.029 86.5273C113.238 86.2342 112.618 85.4852 112.367 84.9425L111.985 85.4128C111.327 85.4418 110.628 85.6046 110.02 85.4598C109.276 85.2645 108.614 84.8268 107.681 84.3963ZM112.84 83.774C111.159 82.0843 108.183 81.6684 106.649 82.9383L112.84 83.774Z" fill="#111109"/>
<path d="M173.557 57.9807C173.652 57.6188 173.746 57.257 173.845 56.8736C173.746 57.2426 173.652 57.6117 173.557 57.9807Z" fill="#111109"/>
<path d="M45.151 40.3491C45.0565 40.7109 44.9578 41.1088 44.8633 41.4887L45.151 40.3491Z" fill="#111109"/>
<path d="M44.8249 42.0437C44.7758 42.1704 44.7267 42.3006 44.6735 42.4271C44.7063 42.3006 44.7553 42.1704 44.8249 42.0437Z" fill="#111109"/>
<path d="M44.533 49.502C44.5861 49.5714 44.6339 49.6439 44.6761 49.7191C44.6761 49.7371 44.6066 49.7841 44.5657 49.8166L44.533 49.502Z" fill="#111109"/>
<path d="M161.061 77.8655C162.479 80.0037 162.048 81.7692 160.494 83.5927C158.755 85.6332 157.017 87.757 155.849 90.0688C155.068 91.6208 154.986 93.5745 155.093 95.3256C155.455 101.006 157.732 105.981 162.533 109.978C163.063 110.42 163.158 111.57 162.989 112.316C160.786 122.164 156.248 131.129 150.247 139.653C142.244 151.009 132.259 160.792 121.062 169.7C116.146 173.6 111.333 177.579 106.367 181.599C105.702 181.104 105.101 180.687 104.534 180.235C94.0649 171.914 83.246 163.831 74.2646 154.208C62.8417 141.968 53.2355 128.766 49.6018 112.858C49.2811 111.451 48.8043 110.069 48.5413 108.654C48.3893 107.815 48.5125 106.936 48.5125 105.622C46.7164 103.542 46.2723 97.2613 48.27 95.1303C45.7216 93.3828 47.1766 91.071 47.411 88.9797C47.6453 86.8886 47.411 84.4393 49.3675 83.0863C49.4334 81.7874 49.2279 80.6514 49.5895 79.6817C50.5143 77.2071 51.6448 74.7829 52.7957 72.3879C53.2355 71.4762 53.1081 70.8973 52.4217 70.1159C46.1654 63.0464 42.6346 55.0109 42.5113 46.0457C42.3839 36.9792 47.2424 30.0508 55.8744 25.3656C61.0988 22.5291 67.0425 22.1311 72.8713 23.7339C74.8648 24.2802 76.6817 25.7816 78.1531 27.1926C79.7521 28.7194 78.889 30.4488 76.509 30.5392C69.6322 30.7816 66.8534 36.7837 68.0537 41.4979C68.6827 43.9835 70.594 45.304 73.1507 45.9878C73.6153 46.1108 74.4373 45.626 74.9141 45.239C78.034 42.7281 81.351 40.3836 85.5684 39.7071C89.0418 39.1499 91.8698 37.692 94.6403 35.995C99.6385 32.9306 104.966 33.2237 110.449 34.6637C111.344 34.957 112.299 35.0804 113.253 35.0255C117.096 34.5154 120.52 35.4163 123.833 37.0516C125.173 37.7136 126.677 38.1115 128.112 38.6252C129.62 39.1607 131.145 39.6637 132.633 40.228C134.121 40.7925 135.543 41.5847 137.089 41.99C140.501 42.8623 143.428 44.8111 145.31 47.4639C146.255 48.7447 147.221 49.1101 148.927 48.5928C152.729 47.4385 153.699 45.8141 153.716 41.6644C153.741 36.5993 151.143 32.5653 147.678 28.8098C147.447 28.5602 147.119 28.3142 147.061 28.032C146.929 27.3916 146.683 26.6138 146.975 26.1181C147.209 25.7165 148.257 25.3583 148.791 25.485C151.172 26.0421 153.769 26.4003 155.779 27.5291C161.748 30.8612 166.919 35.0037 170.676 40.4053C173.746 44.8192 175.834 49.6093 175.785 54.7179C175.74 59.3236 174.671 63.9979 171.379 67.8547C168.353 71.4003 165.538 75.1918 161.061 77.8655ZM44.5336 49.5045L44.5665 49.8193C44.6775 50.3546 44.7844 50.9046 44.8913 51.4292L45.1749 52.464C46.6136 59.4393 50.1073 65.5283 55.3688 70.8394L51.5338 79.1174C50.9377 80.4089 50.7117 81.5955 51.9901 82.7823C52.9807 83.6976 52.3805 84.2295 51.1268 84.5152C50.826 84.6094 50.5505 84.7574 50.3179 84.9497C50.085 85.1422 49.9001 85.3749 49.7745 85.6332C49.458 86.4966 49.2741 87.3933 49.2279 88.2997C49.0264 90.6441 47.8015 93.1332 50.4075 95.1375C50.5514 95.2461 50.1978 95.9805 49.9307 96.3423C49.6635 96.7041 48.788 97.0876 48.8168 97.4276C49.0469 100.322 47.7932 103.607 51.4886 105.615C51.5626 105.655 51.5584 105.803 51.6817 106.158C49.3265 106.881 50.2308 108.495 50.6171 109.968C51.1761 112.091 51.7804 114.204 52.3724 116.321C56.1499 129.783 64.7037 141.006 74.1577 151.715C81.31 159.819 90.164 166.548 98.6973 173.498C101.164 175.514 103.687 177.478 106.269 179.544C111.029 175.719 115.645 172.044 120.224 168.328C129.727 160.626 138.61 152.467 145.799 142.92C152.906 133.477 158.714 123.596 161.168 112.381C161.214 112.076 161.189 111.766 161.095 111.47C161 111.173 160.837 110.898 160.617 110.658C154.986 105.336 152.931 98.9509 153.313 91.8344C153.351 90.9921 153.616 90.17 154.086 89.4357C155.73 87.0334 157.452 84.6673 159.269 82.3662C160.276 81.0891 160.634 80.0037 159.409 78.6578C159.101 78.3214 159.232 77.1599 159.594 76.9466C163.61 74.5696 166.269 71.0999 169.204 67.8547C171.075 65.7888 172.492 63.5131 172.826 60.8359L173.043 60.0724C173.211 59.3706 173.382 58.6699 173.557 57.9704C173.652 57.6086 173.746 57.2469 173.845 56.8633L173.915 56.0855V53.8461L173.713 51.7331L173.553 51.3025C173.487 50.883 173.458 50.4524 173.347 50.0435C172.183 45.7365 169.924 41.7176 166.742 38.2888C162.299 33.4697 157.395 29.2729 150.489 27.3373C149.918 27.1782 149.326 27.0732 148.677 26.9321C148.697 27.2541 148.677 27.3229 148.709 27.3591C148.927 27.6123 149.162 27.8547 149.383 28.1043C153.198 32.3446 155.763 36.9429 155.467 42.5761C155.241 46.8669 153.736 48.8569 149.059 50.134C146.662 50.7852 145.512 50.4597 144.126 48.6073C142.186 46.0277 139.674 44.1969 136.226 43.3396C134.738 42.9777 133.385 42.189 131.951 41.6391C130.516 41.0891 128.95 40.5537 127.43 40.0327C125.999 39.5262 124.466 39.1752 123.155 38.4951C120.257 36.9899 117.256 36.1507 113.848 36.4473C112.608 36.5604 111.354 36.4722 110.149 36.1868C106.372 35.2607 102.569 34.4684 98.7918 35.8648C96.7612 36.6174 94.965 37.8583 93.0125 38.7989C91.4576 39.5783 89.8425 40.2602 88.1785 40.8395C86.5632 41.3714 84.6436 41.3641 83.2132 42.1202C80.3894 43.6144 77.7751 45.4307 75.1608 47.2107C74.3387 47.7643 73.7632 47.9342 72.7561 47.616C69.4924 46.592 67.0425 44.9386 66.2329 41.8092C66.1424 41.4293 66.0479 41.0494 65.9533 40.6658C65.9533 39.812 65.9533 38.9558 65.9533 38.0971L66.2246 37.0117C66.2493 36.8272 66.278 36.6499 66.3068 36.4546L66.4835 36.0638C68.0044 31.4075 71.7121 29.1897 77.4462 28.8786C75.3499 26.4618 73.2493 24.8265 69.9857 24.8084L69.5746 24.7143L68.4402 24.6022L68.0825 24.566H64.4448L64.0913 24.5913L63.3349 24.6782L62.8746 24.8012C62.5155 24.8157 62.1582 24.8544 61.8059 24.9169C53.7657 26.8381 49.01 31.8851 45.623 38.1984C45.2777 38.8423 45.2858 39.6455 45.1297 40.3692L44.8419 41.5088L44.7803 42.0624C44.7309 42.189 44.6816 42.3193 44.6282 42.4458L44.5624 43.1187C44.5624 43.3287 44.5172 43.5385 44.4966 43.752L44.4062 44.8373V48.0934L44.5336 49.5045Z" fill="white"/>
<path d="M147.911 41.6561C148.059 37.7126 145.81 34.6555 143.114 31.8081C139.739 28.2408 140.619 23.4145 144.195 21.4681C145.947 20.5041 148.049 20.1626 150.077 20.5129C157.319 21.5983 162.877 25.2488 167.999 29.5578C174.986 35.4115 179.191 42.5499 181.238 50.9036C182.311 55.2668 180.733 59.091 179.902 63.1213C179.199 66.3197 177.582 69.3079 175.204 71.8045C172.923 74.2827 170.576 76.7176 168.286 79.1923C168.028 79.5213 167.84 79.8892 167.731 80.2776C167.061 82.0577 166.654 83.9535 165.697 85.5997C164.439 87.7705 162.733 89.7349 161.266 91.8117C160.988 92.2107 160.828 92.6649 160.801 93.1322C160.616 98.2516 162.149 102.756 166.58 106.363C168.779 108.172 169.166 110.524 168.636 113.125C165.779 126.718 158.466 138.451 149.559 149.608C142.929 157.93 135.045 165.165 126.651 172.04C120.005 177.467 113.268 182.836 106.403 188.36C103.115 185.796 99.7812 183.401 96.6943 180.795C88.3869 173.794 79.6193 167.134 72.0519 159.547C60.1315 147.582 49.9665 134.475 45.49 118.664C43.8746 112.955 42.6127 107.159 41.4371 101.367C41.0919 99.6843 41.4947 97.8862 41.5605 96.1387C41.6 95.8749 41.6192 95.6089 41.618 95.3428C40.6438 87.5679 43.3978 80.3825 46.1929 73.2154C46.5629 72.2713 46.6041 71.6416 45.9052 70.7914C41.0384 64.8942 38.9174 58.0671 37.154 51.0628C35.7524 45.5671 36.7718 40.2597 39.049 35.4369C43.0854 26.8913 49.9951 20.6721 60.781 18.4507C65.6238 17.3945 70.7169 17.6582 75.3855 19.2068C79.6686 20.654 83.3147 23.0889 84.3957 27.4847C85.1355 30.4912 83.0227 34.5687 78.978 35.1439C78.267 35.2452 77.5764 35.4587 76.8735 35.607C74.2963 36.1461 73.585 36.9854 73.6138 39.612C74.4607 39.0838 75.1513 38.5267 75.965 38.1648C78.5505 37.0795 81.1731 36.0303 83.7749 34.992C86.2413 34.0187 88.872 33.3313 91.0917 32.0578C96.3119 29.0513 101.873 27.7488 107.92 29.1019C111.122 29.8255 114.344 29.5722 117.522 29.9919C120.991 30.455 124.391 31.1822 127.297 33.0744C127.532 33.2403 127.79 33.3788 128.065 33.4868C131.802 34.7893 135.497 36.2002 139.295 37.34C142.427 38.2968 145.285 39.8411 147.672 41.866L147.935 42.0433L147.911 41.6561ZM73.2275 43.7365C71.2052 42.9767 70.3009 41.6888 70.2597 39.8509C70.157 35.4442 71.9245 33.3928 77.2968 32.615C81.4073 32.0071 82.3568 28.1504 80.2483 26.1026C78.5054 24.4131 76.446 22.5209 74.1072 21.8479C66.6384 19.7025 59.4039 20.5382 52.8067 24.5795C47.3193 27.9405 43.4143 32.4232 41.4207 37.9876C39.9039 42.2167 39.5864 46.7081 40.4958 51.0701C41.9468 58.1575 44.6762 64.7748 49.6458 70.6069C49.8385 70.8725 49.9681 71.1697 50.0267 71.4807C50.0854 71.7916 50.0717 72.1097 49.987 72.4158C48.6879 76.3377 47.2946 80.2415 45.9052 84.1416C44.261 88.8052 44.3391 93.6641 44.6433 98.3892C44.9722 103.574 46.2876 108.729 47.4303 113.856C50.9364 129.724 60.4809 142.951 71.9533 155.05C78.7931 162.26 86.8826 168.555 94.5321 175.154C98.2767 178.385 102.301 181.363 106.317 184.562C112.236 179.746 118.032 175.061 123.807 170.364C132.763 163.085 141.124 155.372 148.059 146.461C156.074 136.153 162.659 125.35 165.36 112.948C165.713 111.338 165.877 109.735 164.357 108.476C160.608 105.375 158.281 101.602 157.78 97.0939C157.546 95.0389 157.369 92.7162 158.191 90.8854C159.366 88.3203 161.479 86.0918 163.259 83.7401C164.27 82.387 164.735 80.9832 164.258 79.3623C164.208 79.1726 164.202 78.9758 164.242 78.7841C164.281 78.5924 164.365 78.41 164.488 78.248C167.037 75.6323 169.676 73.0852 172.208 70.4623C176.799 65.7083 178.098 59.9268 178.184 53.968C178.242 49.9882 176.811 46.099 174.805 42.51C172.097 37.6791 168.277 33.3967 163.588 29.934C159.568 26.9348 155.392 24.4094 150.139 23.4688C147.643 23.0202 145.897 23.4254 144.852 24.887C143.808 26.3487 143.993 28.1432 145.457 29.7314C148.605 33.1721 151.183 36.8081 151.298 41.439C151.363 43.95 151.195 46.052 147.627 46.5439C145.485 43.8197 142.851 41.6055 139.209 40.3176C133.886 38.4362 128.686 36.2871 123.383 34.3696C121.499 33.681 119.531 33.1856 117.518 32.8935C114.838 32.51 112.034 32.6836 109.4 32.1699C103.263 30.9507 97.5861 31.3523 92.37 34.7568C90.8328 35.7553 89.0816 36.9058 87.314 37.1481C81.728 37.9224 77.3298 40.3935 73.2275 43.7365Z" fill="#111109"/>
<path d="M73.2245 43.7361C77.3348 40.3931 81.7249 37.9039 87.3068 37.137C89.0949 36.8945 90.8254 35.744 92.3628 34.7455C97.5789 31.341 103.255 30.9394 109.392 32.1586C112.027 32.6832 114.831 32.5204 117.511 32.8822C119.524 33.1744 121.492 33.6697 123.376 34.3583C128.679 36.2758 133.878 38.425 139.202 40.3063C142.843 41.5942 145.478 43.8085 147.62 46.5327C151.188 46.0407 151.356 43.9387 151.29 41.4279C151.175 36.7968 148.598 33.1608 145.449 29.7202C143.986 28.1174 143.805 26.3265 144.845 24.8757C145.885 23.4249 147.636 23.0089 150.131 23.4575C155.385 24.3982 159.561 26.9235 163.581 29.9228C168.27 33.3854 172.089 37.6678 174.798 42.4987C176.804 46.0877 178.234 49.9625 178.177 53.9567C178.091 59.9156 176.792 65.697 172.2 70.451C169.668 73.0739 167.029 75.621 164.481 78.2367C164.358 78.3987 164.274 78.5811 164.234 78.7728C164.195 78.9646 164.2 79.1613 164.251 79.351C164.728 80.9718 164.251 82.3757 163.252 83.7287C161.493 86.0805 159.359 88.309 158.184 90.8742C157.362 92.7049 157.53 95.0276 157.773 97.0826C158.282 101.58 160.609 105.364 164.349 108.465C165.87 109.724 165.706 111.326 165.352 112.936C162.652 125.339 156.067 136.142 148.051 146.449C141.121 155.36 132.76 163.074 123.8 170.353C118.045 175.056 112.225 179.72 106.309 184.506C102.294 181.315 98.2695 178.338 94.5249 175.1C86.8793 168.53 78.79 162.224 71.9501 155.013C60.4779 142.915 50.9333 129.687 47.427 113.819C46.2926 108.692 44.9608 103.537 44.6402 98.3525C44.336 93.6275 44.2291 88.7686 45.9022 84.105C47.2914 80.2049 48.6849 76.301 49.9837 72.3793C50.0686 72.0731 50.0821 71.755 50.0235 71.444C49.9648 71.1331 49.8353 70.836 49.6426 70.5703C44.6731 64.7527 41.9437 58.1355 40.4927 51.0335C39.5832 46.6715 39.9007 42.18 41.4176 37.9509C43.4111 32.3866 47.316 27.904 52.8036 24.5429C59.4009 20.5017 66.6353 19.6659 74.1041 21.8113C76.4429 22.4843 78.5023 24.3765 80.245 26.066C82.3537 28.1102 81.396 31.9669 77.2938 32.5783C71.9213 33.3706 70.1539 35.422 70.2566 39.8142C70.3059 41.6882 71.202 42.9871 73.2245 43.7361ZM161.057 77.8604C165.533 75.1796 168.349 71.3952 171.399 67.8279C174.687 63.9711 175.76 59.2968 175.805 54.6912C175.855 49.5826 173.75 44.7925 170.696 40.3787C166.939 34.9769 161.768 30.8345 155.8 27.5024C153.781 26.3736 151.184 26.0154 148.812 25.4582C148.277 25.3316 147.229 25.6898 146.995 26.0914C146.703 26.587 146.95 27.3649 147.081 28.0053C147.139 28.2874 147.468 28.5335 147.698 28.7831C151.163 32.5385 153.761 36.5797 153.736 41.6377C153.736 45.7874 152.75 47.4264 148.947 48.566C147.242 49.0833 146.276 48.7179 145.33 47.4371C143.448 44.7845 140.521 42.8355 137.109 41.9632C135.564 41.558 134.15 40.7693 132.654 40.2014C131.157 39.6334 129.632 39.1159 128.132 38.5986C126.698 38.0848 125.193 37.6868 123.853 37.0248C120.54 35.3895 117.116 34.4922 113.273 34.9987C112.32 35.0537 111.364 34.9303 110.469 34.6369C104.986 33.1898 99.6588 32.9039 94.6604 35.9683C91.89 37.6652 89.0619 39.1232 85.5887 39.6804C81.3713 40.3569 78.0541 42.7014 74.9343 45.2122C74.4575 45.5921 73.6354 46.0842 73.171 45.9611C70.6141 45.2772 68.7028 43.9568 68.074 41.4713C66.8737 36.7679 69.6525 30.7549 76.5293 30.5125C78.8969 30.4293 79.76 28.7035 78.1734 27.1659C76.7018 25.7549 74.885 24.2715 72.8914 23.7072C67.0628 22.1044 61.1191 22.5024 55.8947 25.3388C47.2626 30.0422 42.4041 36.9524 42.5315 46.0189C42.6548 54.9843 46.1857 63.0232 52.4418 70.0892C53.1282 70.8705 53.2639 71.4495 52.8159 72.3611C51.6527 74.7563 50.5346 77.1803 49.6097 79.6549C49.248 80.6246 49.4535 81.7607 49.3878 83.0595C47.4436 84.4125 47.6696 86.8149 47.4312 88.953C47.1928 91.0913 45.7419 93.3596 48.2903 95.1035C46.2926 97.2345 46.7365 103.515 48.5328 105.596C48.5328 106.909 48.4094 107.788 48.5616 108.627C48.8247 110.042 49.3015 111.424 49.6221 112.831C53.2516 128.75 62.8577 141.941 74.2849 154.181C83.2663 163.805 94.085 171.873 104.554 180.209C105.122 180.66 105.722 181.077 106.388 181.572C111.328 177.574 116.142 173.595 121.042 169.695C132.247 160.787 142.231 151.004 150.226 139.648C156.235 131.127 160.773 122.158 162.968 112.31C163.137 111.565 163.042 110.415 162.512 109.973C157.711 105.993 155.434 101.001 155.072 95.3206C154.965 93.5696 155.047 91.6159 155.828 90.0638C156.996 87.7519 158.735 85.6282 160.473 83.5877C162.043 81.7642 162.475 79.9987 161.057 77.8604Z" fill="#0063FF"/>
<path d="M147.91 41.657L147.935 42.0186L147.672 41.8414C147.744 41.7724 147.823 41.7105 147.91 41.657Z" fill="white"/>
</g>
</svg>
